<?xml version="1.0" encoding="UTF-8" standalone="no"?>
<!DOCTYPE svg PUBLIC "-//W3C//DTD SVG 1.1//EN" "http://www.w3.org/Graphics/SVG/1.1/DTD/svg11.dtd">
<svg width="100%" height="100%" viewBox="0 0 25 25" version="1.1" xmlns="http://www.w3.org/2000/svg" xmlns:xlink="http://www.w3.org/1999/xlink" xml:space="preserve" xmlns:serif="http://www.serif.com/" style="fill-rule:evenodd;clip-rule:evenodd;stroke-linejoin:round;stroke-miterlimit:2;">
    <path d="M22.134,12.21C22.134,11.441 21.511,10.818 20.741,10.818L4.03,10.818C3.26,10.818 2.637,11.441 2.637,12.21C2.637,12.979 3.26,13.603 4.03,13.603L20.741,13.603C21.511,13.603 22.134,12.979 22.134,12.21Z" style="fill:white;fill-rule:nonzero;"/>
    <g transform="matrix(1,0,0,1,0,5.09226)">
        <path d="M22.134,12.21C22.134,11.441 21.511,10.818 20.741,10.818L4.03,10.818C3.26,10.818 2.637,11.441 2.637,12.21C2.637,12.979 3.26,13.603 4.03,13.603L20.741,13.603C21.511,13.603 22.134,12.979 22.134,12.21Z" style="fill:white;fill-rule:nonzero;"/>
    </g>
    <g transform="matrix(1,0,0,1,0,-5.09226)">
        <path d="M22.134,12.21C22.134,11.441 21.511,10.818 20.741,10.818L4.03,10.818C3.26,10.818 2.637,11.441 2.637,12.21C2.637,12.979 3.26,13.603 4.03,13.603L20.741,13.603C21.511,13.603 22.134,12.979 22.134,12.21Z" style="fill:white;fill-rule:nonzero;"/>
    </g>
</svg>
